<svg id="Layer_1" data-name="Layer 1" xmlns="http://www.w3.org/2000/svg" viewBox="0 0 512 512"><defs><style>.cls-1{fill:#fff;}.cls-2{fill:none;isolation:isolate;}</style></defs><title>copy-1</title><path d="M179,513c-5.54-3-7.38-7.62-7.37-14q.22-167.16.11-334.32c0-11.26,3.24-14.46,14.65-14.46q125.18,0,250.36-.1c6.65,0,11.52,1.94,16.22,6.83,17.68,18.35,35.83,36.25,53.74,54.39,2.31,2.34,4.2,5.07,6.29,7.63V513Zm14.25-21.51c1.69.1,3.15.27,4.6.27q144.2,0,288.39.11c4.44,0,5.59-1.26,5.58-5.63q-.19-127.45-.26-254.9a13,13,0,0,0-3.39-8.2q-23.67-24.39-47.9-48.22a11.48,11.48,0,0,0-7.3-3q-117.46-.24-234.91-.12c-1.59,0-3.18.18-4.81.27Z" transform="translate(-1 -1)"/><path d="M274,1c3,2.55,6.27,4.88,9.05,7.67,17.91,17.9,35.64,36,53.62,53.81a17.41,17.41,0,0,1,5.65,13.7c-.28,13.49-.07,27-.1,40.48,0,7.6-4.22,12.41-10.67,12.34S321,124.1,321,116.5c0-12,.08-24-.13-36a9,9,0,0,0-2.26-5.61Q294,49.72,269,24.88a9.54,9.54,0,0,0-6.09-2.51Q145,22.18,27,22.19c-3.67,0-4.85,1-4.85,4.76q.15,144.94.09,289.88c0,1.14.11,2.29.21,4.17h5.93q55,0,110,0c8,0,12.93,5.41,11.73,12.59-.93,5.56-5.2,8.66-12.16,8.66q-40.48,0-81,0c-14,0-28-.25-42,.1C8.61,342.53,4,340.55,1,335Q1,172,1,9L9,1Z" transform="translate(-1 -1)"/><path class="cls-1" d="M9,1,1,9V1Z" transform="translate(-1 -1)"/><path d="M171.5,86.24q41.72,0,83.44,0c9.25,0,14.78,6.71,12,14.38-1.68,4.67-5.62,7.11-12,7.13q-30.23.07-60.46,0-53,0-105.92,0c-7.53,0-12-3.35-12.76-9.22C75,91.3,79.81,86.32,88.06,86.28c16.65-.08,33.31,0,50,0Z" transform="translate(-1 -1)"/><path d="M108,171.77c-6.65,0-13.31.07-20,0-7.65-.1-12.29-4.24-12.29-10.77s4.59-10.66,12.31-10.71q19.71-.12,39.43,0c7.35,0,12.36,4.66,12.18,11-.17,6.13-5.08,10.41-12.21,10.49C121,171.83,114.5,171.77,108,171.77Z" transform="translate(-1 -1)"/><path d="M107.22,235.76c-6.49,0-13,.07-19.46,0-7.24-.09-11.94-4.28-12-10.55-.08-6.55,4.58-10.89,12.11-10.94q20-.13,39.93,0c7.08.06,12,4.62,11.89,10.77s-4.83,10.51-12,10.71c-3.49.1-7,0-10.48,0Z" transform="translate(-1 -1)"/><path class="cls-1" d="M193.25,491.49V172.06c1.63-.1,3.22-.27,4.81-.27q117.46,0,234.91.12a11.48,11.48,0,0,1,7.3,3q24.2,23.86,47.9,48.22a13,13,0,0,1,3.39,8.2q.28,127.45.26,254.9c0,4.36-1.14,5.63-5.58,5.63q-144.2-.19-288.39-.11C196.4,491.76,194.94,491.59,193.25,491.49ZM342.5,406.26v0h31c17.65,0,35.31,0,53,0,7.2,0,11.55-3.9,11.75-10.14.21-6.67-4.41-11.06-11.89-11.08q-44.22-.07-88.44,0c-26.32,0-52.63,0-78.95,0-5.11,0-9.25,1.44-11.55,6.21-3.58,7.41,1.8,15.06,10.7,15.08C286.21,406.3,314.36,406.26,342.5,406.26ZM342,257H328c-23.32,0-46.63,0-69.95,0-8.67,0-14,7.3-10.87,14.71,2.08,4.9,6.11,6.57,11.27,6.55,27-.07,54,0,80.94,0q42.47,0,84.94,0a23.34,23.34,0,0,0,7.37-.83c4.87-1.66,7.4-6.95,6.31-12.19-1-5-5.43-8.22-11.58-8.22Q384.21,256.95,342,257Zm.2,85.29v0h9.49q37.22,0,74.45,0c8.23,0,13-5,12-12.32-.79-5.52-5.22-8.9-12-8.9q-42.22-.05-84.44,0c-27.65,0-55.29,0-82.94,0-5.35,0-9.54,1.68-11.63,6.81-3.09,7.58,2.42,14.47,11.63,14.48Q300.47,342.35,342.19,342.29Z" transform="translate(-1 -1)"/><path d="M342.5,406.26c-28.15,0-56.29,0-84.44,0-8.89,0-14.28-7.67-10.7-15.08,2.3-4.76,6.45-6.22,11.55-6.21,26.32.09,52.63,0,78.95,0q44.22,0,88.44,0c7.49,0,12.11,4.41,11.89,11.08-.2,6.24-4.55,10.11-11.75,10.14-17.65.07-35.31,0-53,0h-31Z" transform="translate(-1 -1)"/><path d="M342,257q42.22,0,84.44,0c6.14,0,10.54,3.23,11.58,8.22,1.09,5.25-1.44,10.53-6.31,12.19a23.34,23.34,0,0,1-7.37.83q-42.47.07-84.94,0c-27,0-54,0-80.94,0-5.16,0-9.2-1.66-11.27-6.55C244,264.33,249.38,257.05,258,257c23.32-.07,46.63,0,69.95,0Z" transform="translate(-1 -1)"/><path d="M342.19,342.29q-41.72,0-83.44,0c-9.21,0-14.72-6.9-11.63-14.48,2.09-5.13,6.28-6.83,11.63-6.81,27.65.07,55.29,0,82.94,0q42.22,0,84.44,0c6.74,0,11.17,3.39,12,8.9,1,7.28-3.73,12.3-12,12.32q-37.22.08-74.45,0h-9.49Z" transform="translate(-1 -1)"/><path class="cls-2" transform="translate(-1 -1)"/></svg>