<svg id="Layer_1" data-name="Layer 1" xmlns="http://www.w3.org/2000/svg" viewBox="0 0 512 512"><defs><style>.cls-1{fill:#fff;}</style></defs><title>Artboard 1</title><path d="M178,512c-5.54-3-7.38-7.62-7.37-14q.22-167.16.11-334.32c0-11.26,3.24-14.46,14.65-14.46q125.18,0,250.36-.1c6.65,0,11.52,1.94,16.22,6.83,17.68,18.35,35.83,36.25,53.74,54.39,2.31,2.34,4.2,5.07,6.29,7.63V512Zm14.25-21.51c1.69.1,3.15.27,4.6.27q144.2,0,288.39.11c4.44,0,5.59-1.26,5.58-5.63q-.19-127.45-.26-254.9a13,13,0,0,0-3.39-8.2q-23.67-24.39-47.9-48.22a11.48,11.48,0,0,0-7.3-3q-117.46-.24-234.91-.12c-1.59,0-3.18.18-4.81.27Z"/><path d="M273,0c3,2.55,6.27,4.88,9,7.67,17.91,17.9,35.64,36,53.62,53.81a17.41,17.41,0,0,1,5.65,13.7c-.28,13.49-.07,27-.1,40.48,0,7.6-4.22,12.41-10.67,12.34S320,123.1,320,115.5c0-12,.08-24-.13-36a9,9,0,0,0-2.26-5.61Q293,48.72,268,23.88a9.54,9.54,0,0,0-6.09-2.51Q144,21.18,26,21.19c-3.67,0-4.85,1-4.85,4.76q.15,144.94.09,289.88c0,1.14.11,2.29.21,4.17H137.38c8,0,12.93,5.41,11.73,12.59-.93,5.56-5.2,8.66-12.16,8.66h-81c-14,0-28-.25-42,.1C7.61,341.53,3,339.55,0,334V8L8,0Z"/><path class="cls-1" d="M8,0,0,8V0Z"/><path d="M170.5,85.24h83.44c9.25,0,14.78,6.71,12,14.38-1.68,4.67-5.62,7.11-12,7.13q-30.23.07-60.46,0H87.56c-7.53,0-12-3.35-12.76-9.22-.8-7.23,4-12.21,12.26-12.25,16.65-.08,33.31,0,50,0Z"/><path d="M107,170.77c-6.65,0-13.31.07-20,0-7.65-.1-12.29-4.24-12.29-10.77S79.3,149.34,87,149.29q19.71-.12,39.43,0c7.35,0,12.36,4.66,12.18,11-.17,6.13-5.08,10.41-12.21,10.49C120,170.83,113.5,170.77,107,170.77Z"/><path d="M106.22,234.76c-6.49,0-13,.07-19.46,0-7.24-.09-11.94-4.28-12-10.55-.08-6.55,4.58-10.89,12.11-10.94q20-.13,39.93,0c7.08.06,12,4.62,11.89,10.77s-4.83,10.51-12,10.71c-3.49.1-7,0-10.48,0Z"/><path class="cls-1" d="M192.25,490.49V171.06c1.63-.1,3.22-.27,4.81-.27q117.46,0,234.91.12a11.48,11.48,0,0,1,7.3,3q24.2,23.86,47.9,48.22a13,13,0,0,1,3.39,8.2q.28,127.45.26,254.9c0,4.36-1.14,5.63-5.58,5.63q-144.2-.19-288.39-.11C195.4,490.76,193.94,490.59,192.25,490.49ZM341.5,405.26h84c7.2,0,11.55-3.9,11.75-10.14.21-6.67-4.41-11.06-11.89-11.08q-44.22-.07-88.44,0H258c-5.11,0-9.25,1.44-11.55,6.21-3.58,7.41,1.8,15.06,10.7,15.08Q299.26,405.28,341.5,405.26ZM341,256H257c-8.67,0-14,7.3-10.87,14.71,2.08,4.9,6.11,6.57,11.27,6.55,27-.07,54,0,80.94,0h84.94a23.34,23.34,0,0,0,7.37-.83c4.87-1.66,7.4-7,6.31-12.19-1-5-5.43-8.22-11.58-8.22Q383.21,256,341,256Zm.2,85.29h83.94c8.23,0,13-5,12-12.32-.79-5.52-5.22-8.9-12-8.9q-42.22,0-84.44,0H257.76c-5.35,0-9.54,1.68-11.63,6.81-3.09,7.58,2.42,14.47,11.63,14.48q41.71,0,83.43-.07Z"/><path d="M341.5,405.26H257.06c-8.89,0-14.28-7.67-10.7-15.08,2.3-4.76,6.45-6.22,11.55-6.21,26.32.09,52.63,0,78.95,0H425.3c7.49,0,12.11,4.41,11.89,11.08-.2,6.24-4.55,10.11-11.75,10.14-17.65.07-35.31,0-53,0h-31Z"/><path d="M341,256h84.44c6.14,0,10.54,3.23,11.58,8.22,1.09,5.25-1.44,10.53-6.31,12.19a23.34,23.34,0,0,1-7.37.83q-42.47.07-84.94,0H257.46c-5.16,0-9.2-1.66-11.27-6.55C243,263.33,248.38,256,257,256c23.32-.07,46.63,0,70,0Z"/><path d="M341.19,341.29H257.75c-9.21,0-14.72-6.9-11.63-14.48,2.09-5.13,6.28-6.83,11.63-6.81,27.65.07,55.29,0,82.94,0h84.44c6.74,0,11.17,3.39,12,8.9,1,7.28-3.73,12.3-12,12.32q-37.22.08-74.45,0h-9.49Z"/></svg>