<?xml version="1.0" standalone="no"?>
<!DOCTYPE svg PUBLIC "-//W3C//DTD SVG 1.1//EN" "http://www.w3.org/Graphics/SVG/1.1/DTD/svg11.dtd">
<svg width="100%" height="100%" viewBox="0 0 25 24" version="1.1" xmlns="http://www.w3.org/2000/svg" xmlns:xlink="http://www.w3.org/1999/xlink" xml:space="preserve" style="fill-rule:evenodd;clip-rule:evenodd;stroke-linejoin:round;stroke-miterlimit:1.41421;">
    <g transform="matrix(1,0,0,1,-940,-862)">
        <path id="Shape 17" d="M960,862L944,862C941.8,862 940,863.8 940,866L940,882C940,884.201 941.8,886 944,886L960,886C962.2,886 964,884.201 964,881.999L964,866C964,863.8 962.2,862 960,862ZM960.404,874L956.5,874L956.5,884.5L952,884.5L952,874L949.831,874L949.831,870.565L952,870.565L952,868.334C952,865.302 953.308,863.5 956.872,863.5L960.979,863.5L960.979,867.216L957.625,867.216C956.629,867.215 956.505,867.736 956.505,868.705L956.5,870.565L961,870.565L960.404,874Z" style="fill:rgb(59,89,151);"/>
    </g>
</svg>
